<svg width="24" height="24" viewBox="0 0 24 24" fill="none" xmlns="http://www.w3.org/2000/svg">
<path d="M12 24C18.6274 24 24 18.6274 24 12C24 5.37258 18.6274 0 12 0C5.37258 0 0 5.37258 0 12C0 18.6274 5.37258 24 12 24Z" fill="url(#paint0_linear_10027_56124)"/>
<path d="M9.8002 17.5C9.41144 17.5 9.4775 17.3532 9.34342 16.9831L8.2002 13.2206L17.0002 8" fill="#C8DAEA"/>
<path d="M9.7998 17.5007C10.0998 17.5007 10.2324 17.3635 10.3998 17.2007L11.9998 15.6449L10.004 14.4414" fill="#A9C9DD"/>
<path d="M10.0042 14.4417L14.8402 18.0146C15.3921 18.3191 15.7904 18.1615 15.9278 17.5023L17.8963 8.22597C18.0979 7.41795 17.5883 7.05147 17.0604 7.29115L5.50137 11.7483C4.71236 12.0647 4.71696 12.5049 5.35755 12.7011L8.32385 13.6269L15.1912 9.29438C15.5153 9.09779 15.8129 9.20349 15.5687 9.42022" fill="url(#paint1_linear_10027_56124)"/>
<defs>
<linearGradient id="paint0_linear_10027_56124" x1="9.0012" y1="1.0008" x2="3.0012" y2="15" gradientUnits="userSpaceOnUse">
<stop stop-color="#37AEE2"/>
<stop offset="1" stop-color="#1E96C8"/>
</linearGradient>
<linearGradient id="paint1_linear_10027_56124" x1="10.498" y1="12.7378" x2="11.7802" y2="16.8853" gradientUnits="userSpaceOnUse">
<stop stop-color="#EFF7FC"/>
<stop offset="1" stop-color="white"/>
</linearGradient>
</defs>
</svg>
